<?xml version="1.0" standalone="no"?><!DOCTYPE svg PUBLIC "-//W3C//DTD SVG 1.1//EN" "http://www.w3.org/Graphics/SVG/1.1/DTD/svg11.dtd"><svg t="1770336032185" class="icon" viewBox="0 0 1024 1024" version="1.1" xmlns="http://www.w3.org/2000/svg" p-id="12466" xmlns:xlink="http://www.w3.org/1999/xlink" width="200" height="200"><path d="M512 128a382.61 382.61 0 1 1-149.45 30.15A381.46 381.46 0 0 1 512 128m0-64C264.58 64 64 264.58 64 512s200.58 448 448 448 448-200.58 448-448S759.42 64 512 64z" p-id="12467" fill="#ffffff"></path><path d="M706 408a32 32 0 0 0-45.25-1L512 549.27 363.28 407A32 32 0 1 0 319 453.2l166.7 159.51a31.89 31.89 0 0 0 25.9 13.21h0.74a31.89 31.89 0 0 0 25.9-13.21L705 453.2a32 32 0 0 0 1-45.2z" p-id="12468" fill="#ffffff"></path></svg>